<mxfile host="app.diagrams.net" modified="2023-05-08T22:11:29.568Z" agent="Mozilla/5.0 (Windows NT 10.0; Win64; x64) AppleWebKit/537.36 (KHTML, like Gecko) Chrome/113.0.0.0 Safari/537.36" etag="phpUj0so0l9AafuvLA4z" version="21.2.9" type="device">
  <diagram name="Página-1" id="oyXvtjH0lp5lp39EX8_9">
    <mxGraphModel dx="1434" dy="756" grid="1" gridSize="10" guides="1" tooltips="1" connect="1" arrows="1" fold="1" page="1" pageScale="1" pageWidth="1500" pageHeight="1500" math="0" shadow="0">
      <root>
        <mxCell id="0" />
        <mxCell id="1" parent="0" />
        <mxCell id="ynXh0rhTUCINpsxoLzb_-17" style="edgeStyle=orthogonalEdgeStyle;rounded=0;orthogonalLoop=1;jettySize=auto;html=1;exitX=0.25;exitY=1;exitDx=0;exitDy=0;entryX=0.444;entryY=-0.074;entryDx=0;entryDy=0;entryPerimeter=0;" parent="1" source="ynXh0rhTUCINpsxoLzb_-1" target="ynXh0rhTUCINpsxoLzb_-15" edge="1">
          <mxGeometry relative="1" as="geometry" />
        </mxCell>
        <mxCell id="ynXh0rhTUCINpsxoLzb_-18" style="edgeStyle=orthogonalEdgeStyle;rounded=0;orthogonalLoop=1;jettySize=auto;html=1;exitX=0.75;exitY=1;exitDx=0;exitDy=0;" parent="1" source="ynXh0rhTUCINpsxoLzb_-1" target="ynXh0rhTUCINpsxoLzb_-13" edge="1">
          <mxGeometry relative="1" as="geometry" />
        </mxCell>
        <mxCell id="ynXh0rhTUCINpsxoLzb_-19" style="edgeStyle=orthogonalEdgeStyle;rounded=0;orthogonalLoop=1;jettySize=auto;html=1;exitX=1;exitY=1;exitDx=0;exitDy=0;entryX=0;entryY=0.5;entryDx=0;entryDy=0;" parent="1" source="ynXh0rhTUCINpsxoLzb_-1" target="ynXh0rhTUCINpsxoLzb_-12" edge="1">
          <mxGeometry relative="1" as="geometry">
            <Array as="points">
              <mxPoint x="490" y="742" />
            </Array>
          </mxGeometry>
        </mxCell>
        <mxCell id="ynXh0rhTUCINpsxoLzb_-21" style="edgeStyle=orthogonalEdgeStyle;rounded=0;orthogonalLoop=1;jettySize=auto;html=1;exitX=1;exitY=0;exitDx=0;exitDy=0;entryX=-0.021;entryY=0.356;entryDx=0;entryDy=0;entryPerimeter=0;" parent="1" source="ynXh0rhTUCINpsxoLzb_-1" target="ynXh0rhTUCINpsxoLzb_-10" edge="1">
          <mxGeometry relative="1" as="geometry" />
        </mxCell>
        <mxCell id="ynXh0rhTUCINpsxoLzb_-23" style="edgeStyle=orthogonalEdgeStyle;rounded=0;orthogonalLoop=1;jettySize=auto;html=1;exitX=1;exitY=0.5;exitDx=0;exitDy=0;entryX=0;entryY=0.333;entryDx=0;entryDy=0;entryPerimeter=0;" parent="1" source="ynXh0rhTUCINpsxoLzb_-1" target="ynXh0rhTUCINpsxoLzb_-11" edge="1">
          <mxGeometry relative="1" as="geometry" />
        </mxCell>
        <mxCell id="KoN0iEGEquIHd-dxLp_V-6" style="edgeStyle=orthogonalEdgeStyle;rounded=0;orthogonalLoop=1;jettySize=auto;html=1;exitX=0.75;exitY=1;exitDx=0;exitDy=0;entryX=0.004;entryY=0.217;entryDx=0;entryDy=0;entryPerimeter=0;" parent="1" source="ynXh0rhTUCINpsxoLzb_-1" target="KoN0iEGEquIHd-dxLp_V-5" edge="1">
          <mxGeometry relative="1" as="geometry">
            <Array as="points">
              <mxPoint x="470" y="737" />
              <mxPoint x="470" y="764" />
            </Array>
          </mxGeometry>
        </mxCell>
        <mxCell id="ynXh0rhTUCINpsxoLzb_-1" value="Utilizador" style="rounded=0;whiteSpace=wrap;html=1;" parent="1" vertex="1">
          <mxGeometry x="370" y="677" width="120" height="60" as="geometry" />
        </mxCell>
        <mxCell id="ynXh0rhTUCINpsxoLzb_-10" value="IDuser(PK)" style="ellipse;whiteSpace=wrap;html=1;" parent="1" vertex="1">
          <mxGeometry x="520" y="667" width="70" height="30" as="geometry" />
        </mxCell>
        <mxCell id="ynXh0rhTUCINpsxoLzb_-11" value="Nome" style="ellipse;whiteSpace=wrap;html=1;" parent="1" vertex="1">
          <mxGeometry x="520" y="707" width="70" height="20" as="geometry" />
        </mxCell>
        <mxCell id="ynXh0rhTUCINpsxoLzb_-12" value="Email" style="ellipse;whiteSpace=wrap;html=1;" parent="1" vertex="1">
          <mxGeometry x="530" y="727" width="60" height="30" as="geometry" />
        </mxCell>
        <mxCell id="ynXh0rhTUCINpsxoLzb_-13" value="Contacto" style="ellipse;whiteSpace=wrap;html=1;" parent="1" vertex="1">
          <mxGeometry x="450" y="777" width="70" height="30" as="geometry" />
        </mxCell>
        <mxCell id="ynXh0rhTUCINpsxoLzb_-15" value="Nacionalidade" style="ellipse;whiteSpace=wrap;html=1;" parent="1" vertex="1">
          <mxGeometry x="360" y="767" width="90" height="30" as="geometry" />
        </mxCell>
        <mxCell id="KoN0iEGEquIHd-dxLp_V-12" style="edgeStyle=orthogonalEdgeStyle;rounded=0;orthogonalLoop=1;jettySize=auto;html=1;exitX=0.5;exitY=0;exitDx=0;exitDy=0;entryX=0;entryY=0.25;entryDx=0;entryDy=0;" parent="1" source="7jjTnizkyDlpULol2Tcw-1" target="7jjTnizkyDlpULol2Tcw-12" edge="1">
          <mxGeometry relative="1" as="geometry" />
        </mxCell>
        <mxCell id="KoN0iEGEquIHd-dxLp_V-13" style="edgeStyle=orthogonalEdgeStyle;rounded=0;orthogonalLoop=1;jettySize=auto;html=1;exitX=0.5;exitY=0;exitDx=0;exitDy=0;entryX=1;entryY=0.25;entryDx=0;entryDy=0;" parent="1" source="7jjTnizkyDlpULol2Tcw-1" target="7jjTnizkyDlpULol2Tcw-13" edge="1">
          <mxGeometry relative="1" as="geometry" />
        </mxCell>
        <mxCell id="7jjTnizkyDlpULol2Tcw-7" value="" style="endArrow=none;html=1;rounded=0;" parent="1" source="7jjTnizkyDlpULol2Tcw-1" edge="1">
          <mxGeometry width="50" height="50" relative="1" as="geometry">
            <mxPoint x="450" y="660" as="sourcePoint" />
            <mxPoint x="740" y="660" as="targetPoint" />
          </mxGeometry>
        </mxCell>
        <mxCell id="7jjTnizkyDlpULol2Tcw-12" value="carro" style="rounded=0;whiteSpace=wrap;html=1;" parent="1" vertex="1">
          <mxGeometry x="760" y="490" width="80" height="30" as="geometry" />
        </mxCell>
        <mxCell id="7jjTnizkyDlpULol2Tcw-13" value="equipamento" style="rounded=0;whiteSpace=wrap;html=1;" parent="1" vertex="1">
          <mxGeometry x="640" y="490" width="80" height="30" as="geometry" />
        </mxCell>
        <mxCell id="KoN0iEGEquIHd-dxLp_V-5" value="Password" style="ellipse;whiteSpace=wrap;html=1;" parent="1" vertex="1">
          <mxGeometry x="530" y="757" width="70" height="30" as="geometry" />
        </mxCell>
        <mxCell id="7jjTnizkyDlpULol2Tcw-1" value="Admin" style="rounded=0;whiteSpace=wrap;html=1;" parent="1" vertex="1">
          <mxGeometry x="710" y="645" width="60" height="30" as="geometry" />
        </mxCell>
        <mxCell id="3NhZeptOGGxYgG2iEjkU-6" value="categoria" style="rounded=0;whiteSpace=wrap;html=1;" parent="1" vertex="1">
          <mxGeometry x="695" y="900" width="90" height="30" as="geometry" />
        </mxCell>
        <mxCell id="3NhZeptOGGxYgG2iEjkU-7" value="noticia" style="rounded=0;whiteSpace=wrap;html=1;" parent="1" vertex="1">
          <mxGeometry x="410" y="1153" width="90" height="30" as="geometry" />
        </mxCell>
        <mxCell id="3NhZeptOGGxYgG2iEjkU-10" value="calendario" style="rounded=0;whiteSpace=wrap;html=1;" parent="1" vertex="1">
          <mxGeometry x="370" y="900" width="90" height="30" as="geometry" />
        </mxCell>
        <mxCell id="3NhZeptOGGxYgG2iEjkU-11" value="equipa" style="rounded=0;whiteSpace=wrap;html=1;" parent="1" vertex="1">
          <mxGeometry x="695" y="1374" width="90" height="30" as="geometry" />
        </mxCell>
        <mxCell id="3NhZeptOGGxYgG2iEjkU-12" value="piloto" style="rounded=0;whiteSpace=wrap;html=1;" parent="1" vertex="1">
          <mxGeometry x="410" y="1373" width="80" height="30" as="geometry" />
        </mxCell>
        <mxCell id="3NhZeptOGGxYgG2iEjkU-13" value="1" style="endArrow=none;html=1;rounded=0;exitX=0.5;exitY=0;exitDx=0;exitDy=0;" parent="1" source="3NhZeptOGGxYgG2iEjkU-6" target="3NhZeptOGGxYgG2iEjkU-14" edge="1">
          <mxGeometry width="50" height="50" relative="1" as="geometry">
            <mxPoint x="880" y="1230" as="sourcePoint" />
            <mxPoint x="980" y="1230" as="targetPoint" />
          </mxGeometry>
        </mxCell>
        <mxCell id="3NhZeptOGGxYgG2iEjkU-14" value="acesso" style="rhombus;whiteSpace=wrap;html=1;" parent="1" vertex="1">
          <mxGeometry x="710" y="780" width="60" height="40" as="geometry" />
        </mxCell>
        <mxCell id="3NhZeptOGGxYgG2iEjkU-15" value="têm" style="rhombus;whiteSpace=wrap;html=1;" parent="1" vertex="1">
          <mxGeometry x="940" y="1079" width="60" height="40" as="geometry" />
        </mxCell>
        <mxCell id="3NhZeptOGGxYgG2iEjkU-16" value="1" style="endArrow=none;html=1;rounded=0;entryX=0;entryY=0.5;entryDx=0;entryDy=0;exitX=1;exitY=0.5;exitDx=0;exitDy=0;" parent="1" source="3NhZeptOGGxYgG2iEjkU-6" target="3NhZeptOGGxYgG2iEjkU-15" edge="1">
          <mxGeometry width="50" height="50" relative="1" as="geometry">
            <mxPoint x="805" y="1232" as="sourcePoint" />
            <mxPoint x="960" y="1022" as="targetPoint" />
            <Array as="points">
              <mxPoint x="785" y="1099" />
            </Array>
          </mxGeometry>
        </mxCell>
        <mxCell id="3NhZeptOGGxYgG2iEjkU-17" value="N" style="endArrow=none;html=1;rounded=0;entryX=0.5;entryY=1;entryDx=0;entryDy=0;exitX=1;exitY=0.5;exitDx=0;exitDy=0;" parent="1" source="3NhZeptOGGxYgG2iEjkU-15" target="3NhZeptOGGxYgG2iEjkU-20" edge="1">
          <mxGeometry width="50" height="50" relative="1" as="geometry">
            <mxPoint x="1185" y="1059" as="sourcePoint" />
            <mxPoint x="1195" y="1114" as="targetPoint" />
            <Array as="points">
              <mxPoint x="1185" y="1100" />
            </Array>
          </mxGeometry>
        </mxCell>
        <mxCell id="3NhZeptOGGxYgG2iEjkU-20" value="evento" style="rounded=0;whiteSpace=wrap;html=1;" parent="1" vertex="1">
          <mxGeometry x="1140" y="1000" width="90" height="30" as="geometry" />
        </mxCell>
        <mxCell id="3NhZeptOGGxYgG2iEjkU-21" value="ter" style="rhombus;whiteSpace=wrap;html=1;" parent="1" vertex="1">
          <mxGeometry x="550" y="1365.5" width="65" height="45" as="geometry" />
        </mxCell>
        <mxCell id="3NhZeptOGGxYgG2iEjkU-22" value="possui" style="rhombus;whiteSpace=wrap;html=1;" parent="1" vertex="1">
          <mxGeometry x="522.5" y="887.5" width="65" height="55" as="geometry" />
        </mxCell>
        <mxCell id="3NhZeptOGGxYgG2iEjkU-23" value="N" style="endArrow=none;html=1;rounded=0;exitX=1;exitY=0.5;exitDx=0;exitDy=0;entryX=0;entryY=0.5;entryDx=0;entryDy=0;" parent="1" source="3NhZeptOGGxYgG2iEjkU-10" target="3NhZeptOGGxYgG2iEjkU-22" edge="1">
          <mxGeometry width="50" height="50" relative="1" as="geometry">
            <mxPoint x="530" y="1093" as="sourcePoint" />
            <mxPoint x="570" y="1032" as="targetPoint" />
            <Array as="points">
              <mxPoint x="480" y="915" />
            </Array>
          </mxGeometry>
        </mxCell>
        <mxCell id="3NhZeptOGGxYgG2iEjkU-24" value="1" style="endArrow=none;html=1;rounded=0;exitX=1;exitY=0.5;exitDx=0;exitDy=0;entryX=0;entryY=0.5;entryDx=0;entryDy=0;" parent="1" source="3NhZeptOGGxYgG2iEjkU-22" target="3NhZeptOGGxYgG2iEjkU-6" edge="1">
          <mxGeometry width="50" height="50" relative="1" as="geometry">
            <mxPoint x="570" y="1227" as="sourcePoint" />
            <mxPoint x="655" y="1283" as="targetPoint" />
            <Array as="points">
              <mxPoint x="630" y="915" />
            </Array>
          </mxGeometry>
        </mxCell>
        <mxCell id="3NhZeptOGGxYgG2iEjkU-25" value="1" style="endArrow=none;html=1;rounded=0;exitX=0.5;exitY=1;exitDx=0;exitDy=0;entryX=0.5;entryY=0;entryDx=0;entryDy=0;" parent="1" source="3NhZeptOGGxYgG2iEjkU-6" target="3NhZeptOGGxYgG2iEjkU-26" edge="1">
          <mxGeometry width="50" height="50" relative="1" as="geometry">
            <mxPoint x="735" y="1247" as="sourcePoint" />
            <mxPoint x="735" y="1333" as="targetPoint" />
          </mxGeometry>
        </mxCell>
        <mxCell id="3NhZeptOGGxYgG2iEjkU-26" value="ter" style="rhombus;whiteSpace=wrap;html=1;" parent="1" vertex="1">
          <mxGeometry x="700" y="1284" width="80" height="50" as="geometry" />
        </mxCell>
        <mxCell id="3NhZeptOGGxYgG2iEjkU-27" value="N" style="endArrow=none;html=1;rounded=0;exitX=0.5;exitY=1;exitDx=0;exitDy=0;entryX=0.5;entryY=0;entryDx=0;entryDy=0;" parent="1" source="3NhZeptOGGxYgG2iEjkU-26" target="3NhZeptOGGxYgG2iEjkU-28" edge="1">
          <mxGeometry width="50" height="50" relative="1" as="geometry">
            <mxPoint x="740" y="1334" as="sourcePoint" />
            <mxPoint x="765" y="1354" as="targetPoint" />
          </mxGeometry>
        </mxCell>
        <mxCell id="3NhZeptOGGxYgG2iEjkU-28" value="" style="rounded=1;whiteSpace=wrap;html=1;" parent="1" vertex="1">
          <mxGeometry x="735" y="1364" width="10" height="10" as="geometry" />
        </mxCell>
        <mxCell id="3NhZeptOGGxYgG2iEjkU-29" value="1" style="endArrow=none;html=1;rounded=0;entryX=0;entryY=0.5;entryDx=0;entryDy=0;exitX=1;exitY=0.5;exitDx=0;exitDy=0;" parent="1" source="3NhZeptOGGxYgG2iEjkU-21" target="3NhZeptOGGxYgG2iEjkU-32" edge="1">
          <mxGeometry width="50" height="50" relative="1" as="geometry">
            <mxPoint x="920" y="1503" as="sourcePoint" />
            <mxPoint x="970" y="1453" as="targetPoint" />
          </mxGeometry>
        </mxCell>
        <mxCell id="3NhZeptOGGxYgG2iEjkU-30" value="N" style="endArrow=none;html=1;rounded=0;entryX=0;entryY=0.5;entryDx=0;entryDy=0;exitX=1;exitY=0.5;exitDx=0;exitDy=0;" parent="1" source="3NhZeptOGGxYgG2iEjkU-31" target="3NhZeptOGGxYgG2iEjkU-21" edge="1">
          <mxGeometry width="50" height="50" relative="1" as="geometry">
            <mxPoint x="745" y="1453" as="sourcePoint" />
            <mxPoint x="745" y="1413" as="targetPoint" />
            <Array as="points" />
          </mxGeometry>
        </mxCell>
        <mxCell id="3NhZeptOGGxYgG2iEjkU-31" value="" style="rounded=0;whiteSpace=wrap;html=1;" parent="1" vertex="1">
          <mxGeometry x="490" y="1383" width="10" height="10" as="geometry" />
        </mxCell>
        <mxCell id="3NhZeptOGGxYgG2iEjkU-32" value="" style="rounded=0;whiteSpace=wrap;html=1;" parent="1" vertex="1">
          <mxGeometry x="685" y="1384" width="10" height="10" as="geometry" />
        </mxCell>
        <mxCell id="3NhZeptOGGxYgG2iEjkU-33" value="recebe" style="rhombus;whiteSpace=wrap;html=1;" parent="1" vertex="1">
          <mxGeometry x="582.5" y="1146" width="57.5" height="44" as="geometry" />
        </mxCell>
        <mxCell id="3NhZeptOGGxYgG2iEjkU-34" value="1" style="endArrow=none;html=1;rounded=0;entryX=0;entryY=1;entryDx=0;entryDy=0;exitX=1;exitY=0.5;exitDx=0;exitDy=0;" parent="1" source="3NhZeptOGGxYgG2iEjkU-33" target="3NhZeptOGGxYgG2iEjkU-6" edge="1">
          <mxGeometry width="50" height="50" relative="1" as="geometry">
            <mxPoint x="550" y="1353" as="sourcePoint" />
            <mxPoint x="600" y="1313" as="targetPoint" />
            <Array as="points">
              <mxPoint x="695" y="1168" />
            </Array>
          </mxGeometry>
        </mxCell>
        <mxCell id="3NhZeptOGGxYgG2iEjkU-35" value="N" style="endArrow=none;html=1;rounded=0;entryX=0;entryY=0.5;entryDx=0;entryDy=0;exitX=1;exitY=0.5;exitDx=0;exitDy=0;" parent="1" source="3NhZeptOGGxYgG2iEjkU-7" target="3NhZeptOGGxYgG2iEjkU-33" edge="1">
          <mxGeometry width="50" height="50" relative="1" as="geometry">
            <mxPoint x="508" y="1168" as="sourcePoint" />
            <mxPoint x="560" y="1146" as="targetPoint" />
            <Array as="points">
              <mxPoint x="560" y="1168" />
            </Array>
          </mxGeometry>
        </mxCell>
        <mxCell id="3NhZeptOGGxYgG2iEjkU-36" value="1" style="endArrow=none;html=1;rounded=0;exitX=0.5;exitY=0;exitDx=0;exitDy=0;entryX=0.5;entryY=1;entryDx=0;entryDy=0;" parent="1" source="3NhZeptOGGxYgG2iEjkU-14" target="7jjTnizkyDlpULol2Tcw-1" edge="1">
          <mxGeometry width="50" height="50" relative="1" as="geometry">
            <mxPoint x="819.41" y="837.5" as="sourcePoint" />
            <mxPoint x="830" y="740" as="targetPoint" />
          </mxGeometry>
        </mxCell>
        <mxCell id="3NhZeptOGGxYgG2iEjkU-129" value="circuitos" style="rounded=0;whiteSpace=wrap;html=1;" parent="1" vertex="1">
          <mxGeometry x="1080" y="770" width="90" height="30" as="geometry" />
        </mxCell>
        <mxCell id="3NhZeptOGGxYgG2iEjkU-130" value="resultados" style="rounded=0;whiteSpace=wrap;html=1;" parent="1" vertex="1">
          <mxGeometry x="1215" y="770" width="90" height="30" as="geometry" />
        </mxCell>
        <mxCell id="3NhZeptOGGxYgG2iEjkU-131" value="têm" style="rhombus;whiteSpace=wrap;html=1;" parent="1" vertex="1">
          <mxGeometry x="1110" y="889" width="60" height="40" as="geometry" />
        </mxCell>
        <mxCell id="3NhZeptOGGxYgG2iEjkU-132" value="1" style="endArrow=none;html=1;rounded=0;exitX=0;exitY=0;exitDx=0;exitDy=0;entryX=0.5;entryY=1;entryDx=0;entryDy=0;" parent="1" source="3NhZeptOGGxYgG2iEjkU-20" target="3NhZeptOGGxYgG2iEjkU-131" edge="1">
          <mxGeometry width="50" height="50" relative="1" as="geometry">
            <mxPoint x="1140" y="979" as="sourcePoint" />
            <mxPoint x="1375" y="781.5" as="targetPoint" />
          </mxGeometry>
        </mxCell>
        <mxCell id="3NhZeptOGGxYgG2iEjkU-133" value="N" style="endArrow=none;html=1;rounded=0;entryX=0.667;entryY=1;entryDx=0;entryDy=0;exitX=0.5;exitY=0;exitDx=0;exitDy=0;entryPerimeter=0;" parent="1" source="3NhZeptOGGxYgG2iEjkU-131" target="3NhZeptOGGxYgG2iEjkU-129" edge="1">
          <mxGeometry width="50" height="50" relative="1" as="geometry">
            <mxPoint x="1122" y="889" as="sourcePoint" />
            <mxPoint x="1129.5" y="850" as="targetPoint" />
          </mxGeometry>
        </mxCell>
        <mxCell id="3NhZeptOGGxYgG2iEjkU-134" value="têm" style="rhombus;whiteSpace=wrap;html=1;" parent="1" vertex="1">
          <mxGeometry x="1200" y="889" width="60" height="40" as="geometry" />
        </mxCell>
        <mxCell id="3NhZeptOGGxYgG2iEjkU-135" value="1" style="endArrow=none;html=1;rounded=0;exitX=1;exitY=0;exitDx=0;exitDy=0;entryX=0.5;entryY=1;entryDx=0;entryDy=0;" parent="1" source="3NhZeptOGGxYgG2iEjkU-20" target="3NhZeptOGGxYgG2iEjkU-134" edge="1">
          <mxGeometry width="50" height="50" relative="1" as="geometry">
            <mxPoint x="1230" y="979" as="sourcePoint" />
            <mxPoint x="1465" y="781.5" as="targetPoint" />
          </mxGeometry>
        </mxCell>
        <mxCell id="3NhZeptOGGxYgG2iEjkU-136" value="1" style="endArrow=none;html=1;rounded=0;exitX=0.5;exitY=0;exitDx=0;exitDy=0;" parent="1" source="3NhZeptOGGxYgG2iEjkU-134" edge="1">
          <mxGeometry width="50" height="50" relative="1" as="geometry">
            <mxPoint x="1212" y="889" as="sourcePoint" />
            <mxPoint x="1230" y="800" as="targetPoint" />
          </mxGeometry>
        </mxCell>
        <mxCell id="3NhZeptOGGxYgG2iEjkU-156" value="IDequipamento(PK)" style="ellipse;whiteSpace=wrap;html=1;" parent="1" vertex="1">
          <mxGeometry x="587.5" y="450" width="112.5" height="30" as="geometry" />
        </mxCell>
        <mxCell id="3NhZeptOGGxYgG2iEjkU-157" value="foto" style="ellipse;whiteSpace=wrap;html=1;" parent="1" vertex="1">
          <mxGeometry x="550" y="480" width="70" height="20" as="geometry" />
        </mxCell>
        <mxCell id="3NhZeptOGGxYgG2iEjkU-158" value="descricao" style="ellipse;whiteSpace=wrap;html=1;" parent="1" vertex="1">
          <mxGeometry x="540" y="510" width="60" height="30" as="geometry" />
        </mxCell>
        <mxCell id="3NhZeptOGGxYgG2iEjkU-159" value="" style="endArrow=none;html=1;rounded=0;exitX=1;exitY=0.5;exitDx=0;exitDy=0;entryX=0;entryY=1;entryDx=0;entryDy=0;" parent="1" source="3NhZeptOGGxYgG2iEjkU-158" target="7jjTnizkyDlpULol2Tcw-13" edge="1">
          <mxGeometry width="50" height="50" relative="1" as="geometry">
            <mxPoint x="600" y="650" as="sourcePoint" />
            <mxPoint x="650" y="600" as="targetPoint" />
          </mxGeometry>
        </mxCell>
        <mxCell id="3NhZeptOGGxYgG2iEjkU-160" value="" style="endArrow=none;html=1;rounded=0;exitX=1;exitY=0.5;exitDx=0;exitDy=0;entryX=0;entryY=0.5;entryDx=0;entryDy=0;" parent="1" source="3NhZeptOGGxYgG2iEjkU-157" target="7jjTnizkyDlpULol2Tcw-13" edge="1">
          <mxGeometry width="50" height="50" relative="1" as="geometry">
            <mxPoint x="610" y="535" as="sourcePoint" />
            <mxPoint x="650" y="530" as="targetPoint" />
          </mxGeometry>
        </mxCell>
        <mxCell id="3NhZeptOGGxYgG2iEjkU-161" value="" style="endArrow=none;html=1;rounded=0;exitX=0.774;exitY=0.953;exitDx=0;exitDy=0;entryX=0.5;entryY=0;entryDx=0;entryDy=0;exitPerimeter=0;" parent="1" source="3NhZeptOGGxYgG2iEjkU-156" target="7jjTnizkyDlpULol2Tcw-13" edge="1">
          <mxGeometry width="50" height="50" relative="1" as="geometry">
            <mxPoint x="627" y="507" as="sourcePoint" />
            <mxPoint x="650" y="515" as="targetPoint" />
          </mxGeometry>
        </mxCell>
        <mxCell id="3NhZeptOGGxYgG2iEjkU-162" value="IDcarro(PK)" style="ellipse;whiteSpace=wrap;html=1;" parent="1" vertex="1">
          <mxGeometry x="763.75" y="440" width="112.5" height="30" as="geometry" />
        </mxCell>
        <mxCell id="3NhZeptOGGxYgG2iEjkU-163" value="foto" style="ellipse;whiteSpace=wrap;html=1;" parent="1" vertex="1">
          <mxGeometry x="870" y="460" width="70" height="20" as="geometry" />
        </mxCell>
        <mxCell id="3NhZeptOGGxYgG2iEjkU-164" value="descricao" style="ellipse;whiteSpace=wrap;html=1;" parent="1" vertex="1">
          <mxGeometry x="870" y="490" width="60" height="30" as="geometry" />
        </mxCell>
        <mxCell id="3NhZeptOGGxYgG2iEjkU-165" value="" style="endArrow=none;html=1;rounded=0;exitX=0;exitY=0.5;exitDx=0;exitDy=0;entryX=1;entryY=0.5;entryDx=0;entryDy=0;" parent="1" source="3NhZeptOGGxYgG2iEjkU-164" target="7jjTnizkyDlpULol2Tcw-12" edge="1">
          <mxGeometry width="50" height="50" relative="1" as="geometry">
            <mxPoint x="920" y="630" as="sourcePoint" />
            <mxPoint x="960" y="500" as="targetPoint" />
          </mxGeometry>
        </mxCell>
        <mxCell id="3NhZeptOGGxYgG2iEjkU-166" value="" style="endArrow=none;html=1;rounded=0;exitX=0;exitY=1;exitDx=0;exitDy=0;entryX=1;entryY=0;entryDx=0;entryDy=0;" parent="1" source="3NhZeptOGGxYgG2iEjkU-163" target="7jjTnizkyDlpULol2Tcw-12" edge="1">
          <mxGeometry width="50" height="50" relative="1" as="geometry">
            <mxPoint x="930" y="515" as="sourcePoint" />
            <mxPoint x="960" y="485" as="targetPoint" />
          </mxGeometry>
        </mxCell>
        <mxCell id="3NhZeptOGGxYgG2iEjkU-167" value="" style="endArrow=none;html=1;rounded=0;exitX=0.5;exitY=1;exitDx=0;exitDy=0;entryX=0.657;entryY=0.024;entryDx=0;entryDy=0;entryPerimeter=0;" parent="1" source="3NhZeptOGGxYgG2iEjkU-162" target="7jjTnizkyDlpULol2Tcw-12" edge="1">
          <mxGeometry width="50" height="50" relative="1" as="geometry">
            <mxPoint x="947" y="487" as="sourcePoint" />
            <mxPoint x="1000" y="470" as="targetPoint" />
          </mxGeometry>
        </mxCell>
        <mxCell id="3NhZeptOGGxYgG2iEjkU-169" value="IDadmin(Pk)" style="ellipse;whiteSpace=wrap;html=1;" parent="1" vertex="1">
          <mxGeometry x="763.75" y="562.13" width="80" height="30" as="geometry" />
        </mxCell>
        <mxCell id="3NhZeptOGGxYgG2iEjkU-170" value="" style="endArrow=none;html=1;rounded=0;exitX=0.75;exitY=0;exitDx=0;exitDy=0;entryX=0;entryY=1;entryDx=0;entryDy=0;" parent="1" source="7jjTnizkyDlpULol2Tcw-1" target="3NhZeptOGGxYgG2iEjkU-169" edge="1">
          <mxGeometry width="50" height="50" relative="1" as="geometry">
            <mxPoint x="990" y="520" as="sourcePoint" />
            <mxPoint x="1040" y="470" as="targetPoint" />
          </mxGeometry>
        </mxCell>
        <mxCell id="3NhZeptOGGxYgG2iEjkU-171" value="nome" style="ellipse;whiteSpace=wrap;html=1;" parent="1" vertex="1">
          <mxGeometry x="655" y="576.13" width="80" height="30" as="geometry" />
        </mxCell>
        <mxCell id="3NhZeptOGGxYgG2iEjkU-172" value="" style="endArrow=none;html=1;rounded=0;exitX=0.25;exitY=0;exitDx=0;exitDy=0;entryX=0;entryY=1;entryDx=0;entryDy=0;" parent="1" source="7jjTnizkyDlpULol2Tcw-1" target="3NhZeptOGGxYgG2iEjkU-171" edge="1">
          <mxGeometry width="50" height="50" relative="1" as="geometry">
            <mxPoint x="765" y="655" as="sourcePoint" />
            <mxPoint x="1050" y="480" as="targetPoint" />
          </mxGeometry>
        </mxCell>
        <mxCell id="3NhZeptOGGxYgG2iEjkU-173" value="email" style="ellipse;whiteSpace=wrap;html=1;" parent="1" vertex="1">
          <mxGeometry x="820" y="592.13" width="80" height="30" as="geometry" />
        </mxCell>
        <mxCell id="3NhZeptOGGxYgG2iEjkU-174" value="" style="endArrow=none;html=1;rounded=0;exitX=1;exitY=0.25;exitDx=0;exitDy=0;entryX=0;entryY=1;entryDx=0;entryDy=0;" parent="1" source="7jjTnizkyDlpULol2Tcw-1" target="3NhZeptOGGxYgG2iEjkU-173" edge="1">
          <mxGeometry width="50" height="50" relative="1" as="geometry">
            <mxPoint x="775" y="665" as="sourcePoint" />
            <mxPoint x="1060" y="490" as="targetPoint" />
          </mxGeometry>
        </mxCell>
        <mxCell id="3NhZeptOGGxYgG2iEjkU-175" value="contacto" style="ellipse;whiteSpace=wrap;html=1;" parent="1" vertex="1">
          <mxGeometry x="820" y="681" width="80" height="30" as="geometry" />
        </mxCell>
        <mxCell id="3NhZeptOGGxYgG2iEjkU-176" value="" style="endArrow=none;html=1;rounded=0;exitX=1;exitY=0.75;exitDx=0;exitDy=0;entryX=0;entryY=0;entryDx=0;entryDy=0;" parent="1" source="7jjTnizkyDlpULol2Tcw-1" target="3NhZeptOGGxYgG2iEjkU-175" edge="1">
          <mxGeometry width="50" height="50" relative="1" as="geometry">
            <mxPoint x="800" y="790" as="sourcePoint" />
            <mxPoint x="840" y="690" as="targetPoint" />
          </mxGeometry>
        </mxCell>
        <mxCell id="tFiFshP0Zx_vcW8rVNBK-1" value="palavrapasse" style="ellipse;whiteSpace=wrap;html=1;" parent="1" vertex="1">
          <mxGeometry x="630" y="681" width="80" height="30" as="geometry" />
        </mxCell>
        <mxCell id="tFiFshP0Zx_vcW8rVNBK-2" value="" style="endArrow=none;html=1;rounded=0;exitX=0;exitY=1;exitDx=0;exitDy=0;entryX=1;entryY=0;entryDx=0;entryDy=0;" parent="1" source="7jjTnizkyDlpULol2Tcw-1" target="tFiFshP0Zx_vcW8rVNBK-1" edge="1">
          <mxGeometry width="50" height="50" relative="1" as="geometry">
            <mxPoint x="780" y="677" as="sourcePoint" />
            <mxPoint x="841" y="696" as="targetPoint" />
          </mxGeometry>
        </mxCell>
        <mxCell id="IjTCloi8kKPH-KtM82Sn-1" value="IDcategoria(Pk)" style="ellipse;whiteSpace=wrap;html=1;" parent="1" vertex="1">
          <mxGeometry x="805" y="840" width="95" height="30" as="geometry" />
        </mxCell>
        <mxCell id="IjTCloi8kKPH-KtM82Sn-2" value="nome" style="ellipse;whiteSpace=wrap;html=1;" parent="1" vertex="1">
          <mxGeometry x="840" y="887.5" width="80" height="30" as="geometry" />
        </mxCell>
        <mxCell id="IjTCloi8kKPH-KtM82Sn-3" value="" style="endArrow=none;html=1;rounded=0;entryX=0;entryY=0.5;entryDx=0;entryDy=0;exitX=1;exitY=0.25;exitDx=0;exitDy=0;" parent="1" source="3NhZeptOGGxYgG2iEjkU-6" target="IjTCloi8kKPH-KtM82Sn-2" edge="1">
          <mxGeometry width="50" height="50" relative="1" as="geometry">
            <mxPoint x="790" y="900" as="sourcePoint" />
            <mxPoint x="1081.25" y="737.87" as="targetPoint" />
          </mxGeometry>
        </mxCell>
        <mxCell id="IjTCloi8kKPH-KtM82Sn-4" value="descricao" style="ellipse;whiteSpace=wrap;html=1;" parent="1" vertex="1">
          <mxGeometry x="820" y="929" width="80" height="30" as="geometry" />
        </mxCell>
        <mxCell id="IjTCloi8kKPH-KtM82Sn-5" value="" style="endArrow=none;html=1;rounded=0;exitX=1;exitY=0.5;exitDx=0;exitDy=0;entryX=0;entryY=0;entryDx=0;entryDy=0;" parent="1" source="3NhZeptOGGxYgG2iEjkU-6" target="IjTCloi8kKPH-KtM82Sn-4" edge="1">
          <mxGeometry width="50" height="50" relative="1" as="geometry">
            <mxPoint x="791.25" y="915.87" as="sourcePoint" />
            <mxPoint x="861.25" y="937.87" as="targetPoint" />
          </mxGeometry>
        </mxCell>
        <mxCell id="IjTCloi8kKPH-KtM82Sn-6" value="" style="endArrow=none;html=1;rounded=0;exitX=0.88;exitY=0;exitDx=0;exitDy=0;entryX=0;entryY=1;entryDx=0;entryDy=0;exitPerimeter=0;" parent="1" source="3NhZeptOGGxYgG2iEjkU-6" target="IjTCloi8kKPH-KtM82Sn-1" edge="1">
          <mxGeometry width="50" height="50" relative="1" as="geometry">
            <mxPoint x="780" y="678" as="sourcePoint" />
            <mxPoint x="842" y="695" as="targetPoint" />
          </mxGeometry>
        </mxCell>
        <mxCell id="IjTCloi8kKPH-KtM82Sn-7" value="IDevento(Pk)" style="ellipse;whiteSpace=wrap;html=1;" parent="1" vertex="1">
          <mxGeometry x="1270" y="959" width="95" height="30" as="geometry" />
        </mxCell>
        <mxCell id="IjTCloi8kKPH-KtM82Sn-8" value="dataFim" style="ellipse;whiteSpace=wrap;html=1;" parent="1" vertex="1">
          <mxGeometry x="1270" y="1040" width="80" height="30" as="geometry" />
        </mxCell>
        <mxCell id="IjTCloi8kKPH-KtM82Sn-9" value="dataInicio" style="ellipse;whiteSpace=wrap;html=1;" parent="1" vertex="1">
          <mxGeometry x="1200" y="1060" width="80" height="30" as="geometry" />
        </mxCell>
        <mxCell id="IjTCloi8kKPH-KtM82Sn-11" value="" style="endArrow=none;html=1;rounded=0;exitX=0.75;exitY=1;exitDx=0;exitDy=0;" parent="1" source="3NhZeptOGGxYgG2iEjkU-20" target="IjTCloi8kKPH-KtM82Sn-9" edge="1">
          <mxGeometry width="50" height="50" relative="1" as="geometry">
            <mxPoint x="1212.5" y="1035" as="sourcePoint" />
            <mxPoint x="1230" y="1050" as="targetPoint" />
          </mxGeometry>
        </mxCell>
        <mxCell id="IjTCloi8kKPH-KtM82Sn-12" value="" style="endArrow=none;html=1;rounded=0;exitX=1;exitY=1;exitDx=0;exitDy=0;entryX=0;entryY=0.5;entryDx=0;entryDy=0;" parent="1" source="3NhZeptOGGxYgG2iEjkU-20" target="IjTCloi8kKPH-KtM82Sn-8" edge="1">
          <mxGeometry width="50" height="50" relative="1" as="geometry">
            <mxPoint x="1218" y="1040" as="sourcePoint" />
            <mxPoint x="1240" y="1071" as="targetPoint" />
          </mxGeometry>
        </mxCell>
        <mxCell id="IjTCloi8kKPH-KtM82Sn-13" value="" style="endArrow=none;html=1;rounded=0;exitX=1.007;exitY=0.158;exitDx=0;exitDy=0;entryX=0.071;entryY=0.781;entryDx=0;entryDy=0;exitPerimeter=0;entryPerimeter=0;" parent="1" source="3NhZeptOGGxYgG2iEjkU-20" target="IjTCloi8kKPH-KtM82Sn-7" edge="1">
          <mxGeometry width="50" height="50" relative="1" as="geometry">
            <mxPoint x="1240" y="1040" as="sourcePoint" />
            <mxPoint x="1270" y="1055" as="targetPoint" />
          </mxGeometry>
        </mxCell>
        <mxCell id="IjTCloi8kKPH-KtM82Sn-14" value="titulo" style="ellipse;whiteSpace=wrap;html=1;" parent="1" vertex="1">
          <mxGeometry x="1270" y="1000" width="80" height="30" as="geometry" />
        </mxCell>
        <mxCell id="IjTCloi8kKPH-KtM82Sn-15" value="" style="endArrow=none;html=1;rounded=0;exitX=1;exitY=0.5;exitDx=0;exitDy=0;entryX=0;entryY=0.5;entryDx=0;entryDy=0;" parent="1" source="3NhZeptOGGxYgG2iEjkU-20" target="IjTCloi8kKPH-KtM82Sn-14" edge="1">
          <mxGeometry width="50" height="50" relative="1" as="geometry">
            <mxPoint x="1241" y="1015" as="sourcePoint" />
            <mxPoint x="1287" y="992" as="targetPoint" />
          </mxGeometry>
        </mxCell>
        <mxCell id="IjTCloi8kKPH-KtM82Sn-16" value="IDresultado(Pk)" style="ellipse;whiteSpace=wrap;html=1;" parent="1" vertex="1">
          <mxGeometry x="1270" y="692" width="95" height="30" as="geometry" />
        </mxCell>
        <mxCell id="IjTCloi8kKPH-KtM82Sn-17" value="resultado" style="ellipse;whiteSpace=wrap;html=1;" parent="1" vertex="1">
          <mxGeometry x="1330" y="722" width="80" height="30" as="geometry" />
        </mxCell>
        <mxCell id="IjTCloi8kKPH-KtM82Sn-18" value="" style="endArrow=none;html=1;rounded=0;exitX=0.75;exitY=0;exitDx=0;exitDy=0;entryX=0.292;entryY=0.944;entryDx=0;entryDy=0;entryPerimeter=0;" parent="1" source="3NhZeptOGGxYgG2iEjkU-130" target="IjTCloi8kKPH-KtM82Sn-16" edge="1">
          <mxGeometry width="50" height="50" relative="1" as="geometry">
            <mxPoint x="1241" y="1015" as="sourcePoint" />
            <mxPoint x="1287" y="992" as="targetPoint" />
          </mxGeometry>
        </mxCell>
        <mxCell id="IjTCloi8kKPH-KtM82Sn-19" value="" style="endArrow=none;html=1;rounded=0;exitX=1;exitY=0;exitDx=0;exitDy=0;entryX=0;entryY=1;entryDx=0;entryDy=0;" parent="1" source="3NhZeptOGGxYgG2iEjkU-130" target="IjTCloi8kKPH-KtM82Sn-17" edge="1">
          <mxGeometry width="50" height="50" relative="1" as="geometry">
            <mxPoint x="1293" y="780" as="sourcePoint" />
            <mxPoint x="1308" y="730" as="targetPoint" />
          </mxGeometry>
        </mxCell>
        <mxCell id="IjTCloi8kKPH-KtM82Sn-20" value="IDcircuitos(Pk)" style="ellipse;whiteSpace=wrap;html=1;" parent="1" vertex="1">
          <mxGeometry x="985" y="720" width="95" height="30" as="geometry" />
        </mxCell>
        <mxCell id="IjTCloi8kKPH-KtM82Sn-21" value="nome" style="ellipse;whiteSpace=wrap;html=1;" parent="1" vertex="1">
          <mxGeometry x="1090" y="698" width="80" height="30" as="geometry" />
        </mxCell>
        <mxCell id="IjTCloi8kKPH-KtM82Sn-22" value="" style="endArrow=none;html=1;rounded=0;exitX=0;exitY=0;exitDx=0;exitDy=0;entryX=0.774;entryY=0.933;entryDx=0;entryDy=0;entryPerimeter=0;" parent="1" source="3NhZeptOGGxYgG2iEjkU-129" target="IjTCloi8kKPH-KtM82Sn-20" edge="1">
          <mxGeometry width="50" height="50" relative="1" as="geometry">
            <mxPoint x="1043" y="746" as="sourcePoint" />
            <mxPoint x="1060" y="740" as="targetPoint" />
          </mxGeometry>
        </mxCell>
        <mxCell id="IjTCloi8kKPH-KtM82Sn-23" value="" style="endArrow=none;html=1;rounded=0;entryX=0.318;entryY=1;entryDx=0;entryDy=0;entryPerimeter=0;exitX=0.343;exitY=0.01;exitDx=0;exitDy=0;exitPerimeter=0;" parent="1" source="3NhZeptOGGxYgG2iEjkU-129" target="IjTCloi8kKPH-KtM82Sn-21" edge="1">
          <mxGeometry width="50" height="50" relative="1" as="geometry">
            <mxPoint x="1112" y="766" as="sourcePoint" />
            <mxPoint x="1068" y="706" as="targetPoint" />
          </mxGeometry>
        </mxCell>
        <mxCell id="IjTCloi8kKPH-KtM82Sn-24" value="km" style="ellipse;whiteSpace=wrap;html=1;" parent="1" vertex="1">
          <mxGeometry x="1010" y="820" width="80" height="30" as="geometry" />
        </mxCell>
        <mxCell id="IjTCloi8kKPH-KtM82Sn-25" value="voltas" style="ellipse;whiteSpace=wrap;html=1;" parent="1" vertex="1">
          <mxGeometry x="970" y="770" width="80" height="30" as="geometry" />
        </mxCell>
        <mxCell id="IjTCloi8kKPH-KtM82Sn-26" value="" style="endArrow=none;html=1;rounded=0;exitX=0;exitY=0.5;exitDx=0;exitDy=0;entryX=1;entryY=0.5;entryDx=0;entryDy=0;" parent="1" source="3NhZeptOGGxYgG2iEjkU-129" target="IjTCloi8kKPH-KtM82Sn-25" edge="1">
          <mxGeometry width="50" height="50" relative="1" as="geometry">
            <mxPoint x="1090" y="780" as="sourcePoint" />
            <mxPoint x="1069" y="758" as="targetPoint" />
          </mxGeometry>
        </mxCell>
        <mxCell id="IjTCloi8kKPH-KtM82Sn-27" value="" style="endArrow=none;html=1;rounded=0;exitX=0;exitY=1;exitDx=0;exitDy=0;entryX=0.589;entryY=0.014;entryDx=0;entryDy=0;entryPerimeter=0;" parent="1" source="3NhZeptOGGxYgG2iEjkU-129" target="IjTCloi8kKPH-KtM82Sn-24" edge="1">
          <mxGeometry width="50" height="50" relative="1" as="geometry">
            <mxPoint x="1100" y="790" as="sourcePoint" />
            <mxPoint x="1070" y="820" as="targetPoint" />
          </mxGeometry>
        </mxCell>
        <mxCell id="IjTCloi8kKPH-KtM82Sn-28" value="dataEventos" style="ellipse;whiteSpace=wrap;html=1;" parent="1" vertex="1">
          <mxGeometry x="290" y="954" width="80" height="30" as="geometry" />
        </mxCell>
        <mxCell id="IjTCloi8kKPH-KtM82Sn-29" value="IDcalendario(PK)" style="ellipse;whiteSpace=wrap;html=1;" parent="1" vertex="1">
          <mxGeometry x="220" y="904" width="110" height="30" as="geometry" />
        </mxCell>
        <mxCell id="IjTCloi8kKPH-KtM82Sn-30" value="" style="endArrow=none;html=1;rounded=0;exitX=0;exitY=0.5;exitDx=0;exitDy=0;entryX=1;entryY=0.5;entryDx=0;entryDy=0;" parent="1" source="3NhZeptOGGxYgG2iEjkU-10" target="IjTCloi8kKPH-KtM82Sn-29" edge="1">
          <mxGeometry width="50" height="50" relative="1" as="geometry">
            <mxPoint x="360" y="919" as="sourcePoint" />
            <mxPoint x="349" y="892" as="targetPoint" />
          </mxGeometry>
        </mxCell>
        <mxCell id="IjTCloi8kKPH-KtM82Sn-31" value="" style="endArrow=none;html=1;rounded=0;exitX=0;exitY=1;exitDx=0;exitDy=0;entryX=0.589;entryY=0.014;entryDx=0;entryDy=0;entryPerimeter=0;" parent="1" source="3NhZeptOGGxYgG2iEjkU-10" target="IjTCloi8kKPH-KtM82Sn-28" edge="1">
          <mxGeometry width="50" height="50" relative="1" as="geometry">
            <mxPoint x="360" y="934" as="sourcePoint" />
            <mxPoint x="350" y="954" as="targetPoint" />
          </mxGeometry>
        </mxCell>
        <mxCell id="IjTCloi8kKPH-KtM82Sn-32" value="dataPubli" style="ellipse;whiteSpace=wrap;html=1;" parent="1" vertex="1">
          <mxGeometry x="290" y="1109" width="80" height="30" as="geometry" />
        </mxCell>
        <mxCell id="IjTCloi8kKPH-KtM82Sn-33" value="IDnoticia(PK)" style="ellipse;whiteSpace=wrap;html=1;" parent="1" vertex="1">
          <mxGeometry x="390" y="1079" width="110" height="30" as="geometry" />
        </mxCell>
        <mxCell id="IjTCloi8kKPH-KtM82Sn-34" value="" style="endArrow=none;html=1;rounded=0;exitX=0.5;exitY=0;exitDx=0;exitDy=0;entryX=0.592;entryY=1.009;entryDx=0;entryDy=0;entryPerimeter=0;" parent="1" source="3NhZeptOGGxYgG2iEjkU-7" target="IjTCloi8kKPH-KtM82Sn-33" edge="1">
          <mxGeometry width="50" height="50" relative="1" as="geometry">
            <mxPoint x="400" y="1121" as="sourcePoint" />
            <mxPoint x="379" y="1098" as="targetPoint" />
          </mxGeometry>
        </mxCell>
        <mxCell id="IjTCloi8kKPH-KtM82Sn-35" value="" style="endArrow=none;html=1;rounded=0;exitX=0;exitY=0.25;exitDx=0;exitDy=0;entryX=1;entryY=0.5;entryDx=0;entryDy=0;" parent="1" source="3NhZeptOGGxYgG2iEjkU-7" target="IjTCloi8kKPH-KtM82Sn-32" edge="1">
          <mxGeometry width="50" height="50" relative="1" as="geometry">
            <mxPoint x="400" y="1136" as="sourcePoint" />
            <mxPoint x="380" y="1160" as="targetPoint" />
          </mxGeometry>
        </mxCell>
        <mxCell id="IjTCloi8kKPH-KtM82Sn-36" value="tema" style="ellipse;whiteSpace=wrap;html=1;" parent="1" vertex="1">
          <mxGeometry x="290" y="1146" width="80" height="30" as="geometry" />
        </mxCell>
        <mxCell id="IjTCloi8kKPH-KtM82Sn-37" value="" style="endArrow=none;html=1;rounded=0;entryX=1;entryY=0.5;entryDx=0;entryDy=0;" parent="1" target="IjTCloi8kKPH-KtM82Sn-36" edge="1">
          <mxGeometry width="50" height="50" relative="1" as="geometry">
            <mxPoint x="410" y="1169" as="sourcePoint" />
            <mxPoint x="380" y="1134" as="targetPoint" />
          </mxGeometry>
        </mxCell>
        <mxCell id="IjTCloi8kKPH-KtM82Sn-38" value="nome" style="ellipse;whiteSpace=wrap;html=1;" parent="1" vertex="1">
          <mxGeometry x="280" y="1335.5" width="80" height="30" as="geometry" />
        </mxCell>
        <mxCell id="IjTCloi8kKPH-KtM82Sn-39" value="IDpiloto(PK)" style="ellipse;whiteSpace=wrap;html=1;" parent="1" vertex="1">
          <mxGeometry x="360" y="1320" width="110" height="30" as="geometry" />
        </mxCell>
        <mxCell id="IjTCloi8kKPH-KtM82Sn-40" value="" style="endArrow=none;html=1;rounded=0;entryX=0.592;entryY=1.009;entryDx=0;entryDy=0;entryPerimeter=0;exitX=0.25;exitY=0;exitDx=0;exitDy=0;" parent="1" source="3NhZeptOGGxYgG2iEjkU-12" target="IjTCloi8kKPH-KtM82Sn-39" edge="1">
          <mxGeometry width="50" height="50" relative="1" as="geometry">
            <mxPoint x="425" y="1370" as="sourcePoint" />
            <mxPoint x="349" y="1316" as="targetPoint" />
          </mxGeometry>
        </mxCell>
        <mxCell id="IjTCloi8kKPH-KtM82Sn-41" value="" style="endArrow=none;html=1;rounded=0;exitX=0;exitY=0.25;exitDx=0;exitDy=0;entryX=1;entryY=0.5;entryDx=0;entryDy=0;" parent="1" source="3NhZeptOGGxYgG2iEjkU-12" target="IjTCloi8kKPH-KtM82Sn-38" edge="1">
          <mxGeometry width="50" height="50" relative="1" as="geometry">
            <mxPoint x="380" y="1379" as="sourcePoint" />
            <mxPoint x="350" y="1378" as="targetPoint" />
          </mxGeometry>
        </mxCell>
        <mxCell id="IjTCloi8kKPH-KtM82Sn-42" value="idade" style="ellipse;whiteSpace=wrap;html=1;" parent="1" vertex="1">
          <mxGeometry x="260" y="1373" width="80" height="30" as="geometry" />
        </mxCell>
        <mxCell id="IjTCloi8kKPH-KtM82Sn-43" value="" style="endArrow=none;html=1;rounded=0;entryX=1;entryY=0.5;entryDx=0;entryDy=0;exitX=0;exitY=0.5;exitDx=0;exitDy=0;" parent="1" source="3NhZeptOGGxYgG2iEjkU-12" target="IjTCloi8kKPH-KtM82Sn-42" edge="1">
          <mxGeometry width="50" height="50" relative="1" as="geometry">
            <mxPoint x="380" y="1387" as="sourcePoint" />
            <mxPoint x="350" y="1352" as="targetPoint" />
          </mxGeometry>
        </mxCell>
        <mxCell id="IjTCloi8kKPH-KtM82Sn-44" value="foto" style="ellipse;whiteSpace=wrap;html=1;" parent="1" vertex="1">
          <mxGeometry x="280" y="1410.5" width="80" height="30" as="geometry" />
        </mxCell>
        <mxCell id="IjTCloi8kKPH-KtM82Sn-45" value="" style="endArrow=none;html=1;rounded=0;entryX=0.95;entryY=0.269;entryDx=0;entryDy=0;entryPerimeter=0;exitX=0;exitY=1;exitDx=0;exitDy=0;" parent="1" source="3NhZeptOGGxYgG2iEjkU-12" target="IjTCloi8kKPH-KtM82Sn-44" edge="1">
          <mxGeometry width="50" height="50" relative="1" as="geometry">
            <mxPoint x="400" y="1410" as="sourcePoint" />
            <mxPoint x="350" y="1398" as="targetPoint" />
          </mxGeometry>
        </mxCell>
        <mxCell id="IjTCloi8kKPH-KtM82Sn-46" value="nome" style="ellipse;whiteSpace=wrap;html=1;" parent="1" vertex="1">
          <mxGeometry x="812.5" y="1330" width="80" height="30" as="geometry" />
        </mxCell>
        <mxCell id="IjTCloi8kKPH-KtM82Sn-47" value="IDequipa(PK)" style="ellipse;whiteSpace=wrap;html=1;" parent="1" vertex="1">
          <mxGeometry x="735" y="1440.5" width="110" height="30" as="geometry" />
        </mxCell>
        <mxCell id="IjTCloi8kKPH-KtM82Sn-48" value="" style="endArrow=none;html=1;rounded=0;entryX=0.392;entryY=0.055;entryDx=0;entryDy=0;entryPerimeter=0;exitX=0.903;exitY=1.01;exitDx=0;exitDy=0;exitPerimeter=0;" parent="1" source="3NhZeptOGGxYgG2iEjkU-11" target="IjTCloi8kKPH-KtM82Sn-47" edge="1">
          <mxGeometry width="50" height="50" relative="1" as="geometry">
            <mxPoint x="1013.75" y="1363" as="sourcePoint" />
            <mxPoint x="932.75" y="1306" as="targetPoint" />
          </mxGeometry>
        </mxCell>
        <mxCell id="IjTCloi8kKPH-KtM82Sn-49" value="" style="endArrow=none;html=1;rounded=0;exitX=1;exitY=0;exitDx=0;exitDy=0;entryX=0;entryY=1;entryDx=0;entryDy=0;" parent="1" source="3NhZeptOGGxYgG2iEjkU-11" target="IjTCloi8kKPH-KtM82Sn-46" edge="1">
          <mxGeometry width="50" height="50" relative="1" as="geometry">
            <mxPoint x="993.75" y="1371" as="sourcePoint" />
            <mxPoint x="933.75" y="1368" as="targetPoint" />
          </mxGeometry>
        </mxCell>
        <mxCell id="IjTCloi8kKPH-KtM82Sn-50" value="TotalPontos" style="ellipse;whiteSpace=wrap;html=1;" parent="1" vertex="1">
          <mxGeometry x="830" y="1365.5" width="80" height="30" as="geometry" />
        </mxCell>
        <mxCell id="IjTCloi8kKPH-KtM82Sn-51" value="" style="endArrow=none;html=1;rounded=0;entryX=0.057;entryY=0.745;entryDx=0;entryDy=0;exitX=1;exitY=0.5;exitDx=0;exitDy=0;entryPerimeter=0;" parent="1" source="3NhZeptOGGxYgG2iEjkU-11" target="IjTCloi8kKPH-KtM82Sn-50" edge="1">
          <mxGeometry width="50" height="50" relative="1" as="geometry">
            <mxPoint x="993.75" y="1378" as="sourcePoint" />
            <mxPoint x="933.75" y="1342" as="targetPoint" />
          </mxGeometry>
        </mxCell>
        <mxCell id="IjTCloi8kKPH-KtM82Sn-52" value="logo" style="ellipse;whiteSpace=wrap;html=1;" parent="1" vertex="1">
          <mxGeometry x="830" y="1404" width="80" height="30" as="geometry" />
        </mxCell>
        <mxCell id="IjTCloi8kKPH-KtM82Sn-53" value="" style="endArrow=none;html=1;rounded=0;entryX=0.03;entryY=0.367;entryDx=0;entryDy=0;entryPerimeter=0;exitX=1;exitY=1;exitDx=0;exitDy=0;" parent="1" source="3NhZeptOGGxYgG2iEjkU-11" target="IjTCloi8kKPH-KtM82Sn-52" edge="1">
          <mxGeometry width="50" height="50" relative="1" as="geometry">
            <mxPoint x="993.75" y="1393" as="sourcePoint" />
            <mxPoint x="933.75" y="1388" as="targetPoint" />
          </mxGeometry>
        </mxCell>
      </root>
    </mxGraphModel>
  </diagram>
</mxfile>
